<svg xmlns="http://www.w3.org/2000/svg" xmlns:xlink="http://www.w3.org/1999/xlink" width="500" zoomAndPan="magnify" viewBox="0 0 375 374.999991" height="500" preserveAspectRatio="xMidYMid meet" version="1.0"><defs><clipPath id="5c55fb07e1"><path d="M 17.703125 18.953125 L 127.875 18.953125 L 127.875 128.695312 L 17.703125 128.695312 Z M 17.703125 18.953125 " clip-rule="nonzero"/></clipPath><clipPath id="79707576cc"><path d="M 127.488281 30.203125 L 127.488281 117.445312 C 127.488281 120.429688 126.300781 123.289062 124.191406 125.398438 C 122.082031 127.507812 119.21875 128.695312 116.238281 128.695312 L 28.953125 128.695312 C 25.972656 128.695312 23.109375 127.507812 21 125.398438 C 18.890625 123.289062 17.703125 120.429688 17.703125 117.445312 L 17.703125 30.203125 C 17.703125 27.21875 18.890625 24.359375 21 22.25 C 23.109375 20.140625 25.972656 18.953125 28.953125 18.953125 L 116.238281 18.953125 C 119.21875 18.953125 122.082031 20.140625 124.191406 22.25 C 126.300781 24.359375 127.488281 27.21875 127.488281 30.203125 Z M 127.488281 30.203125 " clip-rule="nonzero"/></clipPath><clipPath id="d02f88721d"><path d="M 0.703125 0.953125 L 110.679688 0.953125 L 110.679688 110.695312 L 0.703125 110.695312 Z M 0.703125 0.953125 " clip-rule="nonzero"/></clipPath><clipPath id="2269c8a026"><path d="M 110.488281 12.203125 L 110.488281 99.445312 C 110.488281 102.429688 109.300781 105.289062 107.191406 107.398438 C 105.082031 109.507812 102.21875 110.695312 99.238281 110.695312 L 11.953125 110.695312 C 8.972656 110.695312 6.109375 109.507812 4 107.398438 C 1.890625 105.289062 0.703125 102.429688 0.703125 99.445312 L 0.703125 12.203125 C 0.703125 9.21875 1.890625 6.359375 4 4.25 C 6.109375 2.140625 8.972656 0.953125 11.953125 0.953125 L 99.238281 0.953125 C 102.21875 0.953125 105.082031 2.140625 107.191406 4.25 C 109.300781 6.359375 110.488281 9.21875 110.488281 12.203125 Z M 110.488281 12.203125 " clip-rule="nonzero"/></clipPath><clipPath id="3e53f357d9"><rect x="0" width="111" y="0" height="111"/></clipPath><clipPath id="4582a620c9"><path d="M 17.703125 18.96875 L 127.203125 18.96875 L 127.203125 128.453125 L 17.703125 128.453125 Z M 17.703125 18.96875 " clip-rule="nonzero"/></clipPath><clipPath id="95c2b2fb5b"><path d="M 127.484375 30.21875 L 127.484375 117.460938 C 127.484375 120.441406 126.300781 123.304688 124.191406 125.414062 C 122.082031 127.523438 119.21875 128.710938 116.234375 128.710938 L 28.953125 128.710938 C 25.96875 128.710938 23.109375 127.523438 21 125.414062 C 18.890625 123.304688 17.703125 120.441406 17.703125 117.460938 L 17.703125 30.21875 C 17.703125 27.234375 18.890625 24.375 21 22.265625 C 23.109375 20.152344 25.96875 18.96875 28.953125 18.96875 L 116.234375 18.96875 C 119.21875 18.96875 122.082031 20.152344 124.191406 22.265625 C 126.300781 24.375 127.484375 27.234375 127.484375 30.21875 Z M 127.484375 30.21875 " clip-rule="nonzero"/></clipPath><clipPath id="4986d78cb5"><path d="M 132.609375 18.953125 L 242.777344 18.953125 L 242.777344 128.695312 L 132.609375 128.695312 Z M 132.609375 18.953125 " clip-rule="nonzero"/></clipPath><clipPath id="09f4859669"><path d="M 242.390625 30.203125 L 242.390625 117.445312 C 242.390625 120.429688 241.207031 123.289062 239.097656 125.398438 C 236.984375 127.507812 234.125 128.695312 231.140625 128.695312 L 143.859375 128.695312 C 140.875 128.695312 138.015625 127.507812 135.902344 125.398438 C 133.792969 123.289062 132.609375 120.429688 132.609375 117.445312 L 132.609375 30.203125 C 132.609375 27.21875 133.792969 24.359375 135.902344 22.25 C 138.015625 20.140625 140.875 18.953125 143.859375 18.953125 L 231.140625 18.953125 C 234.125 18.953125 236.984375 20.140625 239.097656 22.25 C 241.207031 24.359375 242.390625 27.21875 242.390625 30.203125 Z M 242.390625 30.203125 " clip-rule="nonzero"/></clipPath><clipPath id="061007d98f"><path d="M 0.609375 0.953125 L 110.398438 0.953125 L 110.398438 110.695312 L 0.609375 110.695312 Z M 0.609375 0.953125 " clip-rule="nonzero"/></clipPath><clipPath id="c54c6782d4"><path d="M 110.390625 12.203125 L 110.390625 99.445312 C 110.390625 102.429688 109.207031 105.289062 107.097656 107.398438 C 104.984375 109.507812 102.125 110.695312 99.140625 110.695312 L 11.859375 110.695312 C 8.875 110.695312 6.015625 109.507812 3.902344 107.398438 C 1.792969 105.289062 0.609375 102.429688 0.609375 99.445312 L 0.609375 12.203125 C 0.609375 9.21875 1.792969 6.359375 3.902344 4.25 C 6.015625 2.140625 8.875 0.953125 11.859375 0.953125 L 99.140625 0.953125 C 102.125 0.953125 104.984375 2.140625 107.097656 4.25 C 109.207031 6.359375 110.390625 9.21875 110.390625 12.203125 Z M 110.390625 12.203125 " clip-rule="nonzero"/></clipPath><clipPath id="d86b7bc4dc"><rect x="0" width="111" y="0" height="111"/></clipPath><clipPath id="943f60939e"><path d="M 132.609375 18.96875 L 242.109375 18.96875 L 242.109375 128.453125 L 132.609375 128.453125 Z M 132.609375 18.96875 " clip-rule="nonzero"/></clipPath><clipPath id="22aeba727a"><path d="M 242.390625 30.21875 L 242.390625 117.460938 C 242.390625 120.441406 241.203125 123.304688 239.09375 125.414062 C 236.984375 127.523438 234.125 128.710938 231.140625 128.710938 L 143.859375 128.710938 C 140.875 128.710938 138.015625 127.523438 135.902344 125.414062 C 133.792969 123.304688 132.609375 120.441406 132.609375 117.460938 L 132.609375 30.21875 C 132.609375 27.234375 133.792969 24.375 135.902344 22.265625 C 138.015625 20.152344 140.875 18.96875 143.859375 18.96875 L 231.140625 18.96875 C 234.125 18.96875 236.984375 20.152344 239.09375 22.265625 C 241.203125 24.375 242.390625 27.234375 242.390625 30.21875 Z M 242.390625 30.21875 " clip-rule="nonzero"/></clipPath><clipPath id="8c76fbda18"><path d="M 247.65625 18.953125 L 357.828125 18.953125 L 357.828125 128.695312 L 247.65625 128.695312 Z M 247.65625 18.953125 " clip-rule="nonzero"/></clipPath><clipPath id="be843eade1"><path d="M 357.4375 30.203125 L 357.4375 117.445312 C 357.4375 120.429688 356.253906 123.289062 354.144531 125.398438 C 352.035156 127.507812 349.171875 128.695312 346.1875 128.695312 L 258.90625 128.695312 C 255.921875 128.695312 253.0625 127.507812 250.953125 125.398438 C 248.84375 123.289062 247.65625 120.429688 247.65625 117.445312 L 247.65625 30.203125 C 247.65625 27.21875 248.84375 24.359375 250.953125 22.25 C 253.0625 20.140625 255.921875 18.953125 258.90625 18.953125 L 346.1875 18.953125 C 349.171875 18.953125 352.035156 20.140625 354.144531 22.25 C 356.253906 24.359375 357.4375 27.21875 357.4375 30.203125 Z M 357.4375 30.203125 " clip-rule="nonzero"/></clipPath><clipPath id="b19575388e"><path d="M 0.65625 0.953125 L 110.601562 0.953125 L 110.601562 110.695312 L 0.65625 110.695312 Z M 0.65625 0.953125 " clip-rule="nonzero"/></clipPath><clipPath id="9dc822e335"><path d="M 110.4375 12.203125 L 110.4375 99.445312 C 110.4375 102.429688 109.253906 105.289062 107.144531 107.398438 C 105.035156 109.507812 102.171875 110.695312 99.1875 110.695312 L 11.90625 110.695312 C 8.921875 110.695312 6.0625 109.507812 3.953125 107.398438 C 1.84375 105.289062 0.65625 102.429688 0.65625 99.445312 L 0.65625 12.203125 C 0.65625 9.21875 1.84375 6.359375 3.953125 4.25 C 6.0625 2.140625 8.921875 0.953125 11.90625 0.953125 L 99.1875 0.953125 C 102.171875 0.953125 105.035156 2.140625 107.144531 4.25 C 109.253906 6.359375 110.4375 9.21875 110.4375 12.203125 Z M 110.4375 12.203125 " clip-rule="nonzero"/></clipPath><clipPath id="fe47e8fb5b"><rect x="0" width="111" y="0" height="111"/></clipPath><clipPath id="64d0427933"><path d="M 247.65625 18.96875 L 357.15625 18.96875 L 357.15625 128.453125 L 247.65625 128.453125 Z M 247.65625 18.96875 " clip-rule="nonzero"/></clipPath><clipPath id="6caea1db6e"><path d="M 357.4375 30.21875 L 357.4375 117.460938 C 357.4375 120.441406 356.253906 123.304688 354.144531 125.414062 C 352.03125 127.523438 349.171875 128.710938 346.1875 128.710938 L 258.90625 128.710938 C 255.921875 128.710938 253.0625 127.523438 250.953125 125.414062 C 248.84375 123.304688 247.65625 120.441406 247.65625 117.460938 L 247.65625 30.21875 C 247.65625 27.234375 248.84375 24.375 250.953125 22.265625 C 253.0625 20.152344 255.921875 18.96875 258.90625 18.96875 L 346.1875 18.96875 C 349.171875 18.96875 352.03125 20.152344 354.144531 22.265625 C 356.253906 24.375 357.4375 27.234375 357.4375 30.21875 Z M 357.4375 30.21875 " clip-rule="nonzero"/></clipPath><clipPath id="d533e47106"><path d="M 132.609375 132.984375 L 242.777344 132.984375 L 242.777344 242.726562 L 132.609375 242.726562 Z M 132.609375 132.984375 " clip-rule="nonzero"/></clipPath><clipPath id="372d1737a5"><path d="M 242.390625 144.234375 L 242.390625 231.476562 C 242.390625 234.460938 241.207031 237.320312 239.097656 239.433594 C 236.984375 241.542969 234.125 242.726562 231.140625 242.726562 L 143.859375 242.726562 C 140.875 242.726562 138.015625 241.542969 135.902344 239.433594 C 133.792969 237.320312 132.609375 234.460938 132.609375 231.476562 L 132.609375 144.234375 C 132.609375 141.253906 133.792969 138.390625 135.902344 136.28125 C 138.015625 134.171875 140.875 132.984375 143.859375 132.984375 L 231.140625 132.984375 C 234.125 132.984375 236.984375 134.171875 239.097656 136.28125 C 241.207031 138.390625 242.390625 141.253906 242.390625 144.234375 Z M 242.390625 144.234375 " clip-rule="nonzero"/></clipPath><clipPath id="48ecffb955"><path d="M 0.609375 0.984375 L 110.398438 0.984375 L 110.398438 110.726562 L 0.609375 110.726562 Z M 0.609375 0.984375 " clip-rule="nonzero"/></clipPath><clipPath id="dc4951af37"><path d="M 110.390625 12.234375 L 110.390625 99.476562 C 110.390625 102.460938 109.207031 105.320312 107.097656 107.433594 C 104.984375 109.542969 102.125 110.726562 99.140625 110.726562 L 11.859375 110.726562 C 8.875 110.726562 6.015625 109.542969 3.902344 107.433594 C 1.792969 105.320312 0.609375 102.460938 0.609375 99.476562 L 0.609375 12.234375 C 0.609375 9.253906 1.792969 6.390625 3.902344 4.28125 C 6.015625 2.171875 8.875 0.984375 11.859375 0.984375 L 99.140625 0.984375 C 102.125 0.984375 104.984375 2.171875 107.097656 4.28125 C 109.207031 6.390625 110.390625 9.253906 110.390625 12.234375 Z M 110.390625 12.234375 " clip-rule="nonzero"/></clipPath><clipPath id="4f58e00824"><rect x="0" width="111" y="0" height="111"/></clipPath><clipPath id="43a8f4d931"><path d="M 132.609375 133 L 242.109375 133 L 242.109375 242.484375 L 132.609375 242.484375 Z M 132.609375 133 " clip-rule="nonzero"/></clipPath><clipPath id="9a9cc3caf0"><path d="M 242.390625 144.25 L 242.390625 231.492188 C 242.390625 234.472656 241.203125 237.335938 239.09375 239.445312 C 236.984375 241.554688 234.125 242.742188 231.140625 242.742188 L 143.859375 242.742188 C 140.875 242.742188 138.015625 241.554688 135.902344 239.445312 C 133.792969 237.335938 132.609375 234.472656 132.609375 231.492188 L 132.609375 144.25 C 132.609375 141.265625 133.792969 138.40625 135.902344 136.296875 C 138.015625 134.1875 140.875 133 143.859375 133 L 231.140625 133 C 234.125 133 236.984375 134.1875 239.09375 136.296875 C 241.203125 138.40625 242.390625 141.265625 242.390625 144.25 Z M 242.390625 144.25 " clip-rule="nonzero"/></clipPath><clipPath id="73a6d9bb27"><path d="M 247.65625 132.984375 L 357.828125 132.984375 L 357.828125 242.726562 L 247.65625 242.726562 Z M 247.65625 132.984375 " clip-rule="nonzero"/></clipPath><clipPath id="8dca7a06eb"><path d="M 357.4375 144.234375 L 357.4375 231.476562 C 357.4375 234.460938 356.253906 237.320312 354.144531 239.433594 C 352.035156 241.542969 349.171875 242.726562 346.1875 242.726562 L 258.90625 242.726562 C 255.921875 242.726562 253.0625 241.542969 250.953125 239.433594 C 248.84375 237.320312 247.65625 234.460938 247.65625 231.476562 L 247.65625 144.234375 C 247.65625 141.253906 248.84375 138.390625 250.953125 136.28125 C 253.0625 134.171875 255.921875 132.984375 258.90625 132.984375 L 346.1875 132.984375 C 349.171875 132.984375 352.035156 134.171875 354.144531 136.28125 C 356.253906 138.390625 357.4375 141.253906 357.4375 144.234375 Z M 357.4375 144.234375 " clip-rule="nonzero"/></clipPath><clipPath id="631dca63cb"><path d="M 0.65625 0.984375 L 110.601562 0.984375 L 110.601562 110.726562 L 0.65625 110.726562 Z M 0.65625 0.984375 " clip-rule="nonzero"/></clipPath><clipPath id="7faaa76a35"><path d="M 110.4375 12.234375 L 110.4375 99.476562 C 110.4375 102.460938 109.253906 105.320312 107.144531 107.433594 C 105.035156 109.542969 102.171875 110.726562 99.1875 110.726562 L 11.90625 110.726562 C 8.921875 110.726562 6.0625 109.542969 3.953125 107.433594 C 1.84375 105.320312 0.65625 102.460938 0.65625 99.476562 L 0.65625 12.234375 C 0.65625 9.253906 1.84375 6.390625 3.953125 4.28125 C 6.0625 2.171875 8.921875 0.984375 11.90625 0.984375 L 99.1875 0.984375 C 102.171875 0.984375 105.035156 2.171875 107.144531 4.28125 C 109.253906 6.390625 110.4375 9.253906 110.4375 12.234375 Z M 110.4375 12.234375 " clip-rule="nonzero"/></clipPath><clipPath id="d7797b40f8"><rect x="0" width="111" y="0" height="111"/></clipPath><clipPath id="5c16db5263"><path d="M 247.65625 133 L 357.15625 133 L 357.15625 242.484375 L 247.65625 242.484375 Z M 247.65625 133 " clip-rule="nonzero"/></clipPath><clipPath id="0bcbb793a5"><path d="M 357.4375 144.25 L 357.4375 231.492188 C 357.4375 234.472656 356.253906 237.335938 354.144531 239.445312 C 352.03125 241.554688 349.171875 242.742188 346.1875 242.742188 L 258.90625 242.742188 C 255.921875 242.742188 253.0625 241.554688 250.953125 239.445312 C 248.84375 237.335938 247.65625 234.472656 247.65625 231.492188 L 247.65625 144.25 C 247.65625 141.265625 248.84375 138.40625 250.953125 136.296875 C 253.0625 134.1875 255.921875 133 258.90625 133 L 346.1875 133 C 349.171875 133 352.03125 134.1875 354.144531 136.296875 C 356.253906 138.40625 357.4375 141.265625 357.4375 144.25 Z M 357.4375 144.25 " clip-rule="nonzero"/></clipPath><clipPath id="e1f76d693e"><path d="M 17.5625 132.984375 L 127.730469 132.984375 L 127.730469 242.726562 L 17.5625 242.726562 Z M 17.5625 132.984375 " clip-rule="nonzero"/></clipPath><clipPath id="40b3c4eca2"><path d="M 127.34375 144.234375 L 127.34375 231.476562 C 127.34375 234.460938 126.15625 237.320312 124.046875 239.433594 C 121.9375 241.542969 119.078125 242.726562 116.09375 242.726562 L 28.8125 242.726562 C 25.828125 242.726562 22.964844 241.542969 20.855469 239.433594 C 18.746094 237.320312 17.5625 234.460938 17.5625 231.476562 L 17.5625 144.234375 C 17.5625 141.253906 18.746094 138.390625 20.855469 136.28125 C 22.964844 134.171875 25.828125 132.984375 28.8125 132.984375 L 116.09375 132.984375 C 119.078125 132.984375 121.9375 134.171875 124.046875 136.28125 C 126.15625 138.390625 127.34375 141.253906 127.34375 144.234375 Z M 127.34375 144.234375 " clip-rule="nonzero"/></clipPath><clipPath id="645515a0e3"><path d="M 0.5625 0.984375 L 110.441406 0.984375 L 110.441406 110.726562 L 0.5625 110.726562 Z M 0.5625 0.984375 " clip-rule="nonzero"/></clipPath><clipPath id="784a487bf3"><path d="M 110.34375 12.234375 L 110.34375 99.476562 C 110.34375 102.460938 109.15625 105.320312 107.046875 107.433594 C 104.9375 109.542969 102.078125 110.726562 99.09375 110.726562 L 11.8125 110.726562 C 8.828125 110.726562 5.964844 109.542969 3.855469 107.433594 C 1.746094 105.320312 0.5625 102.460938 0.5625 99.476562 L 0.5625 12.234375 C 0.5625 9.253906 1.746094 6.390625 3.855469 4.28125 C 5.964844 2.171875 8.828125 0.984375 11.8125 0.984375 L 99.09375 0.984375 C 102.078125 0.984375 104.9375 2.171875 107.046875 4.28125 C 109.15625 6.390625 110.34375 9.253906 110.34375 12.234375 Z M 110.34375 12.234375 " clip-rule="nonzero"/></clipPath><clipPath id="fe3d318010"><rect x="0" width="111" y="0" height="111"/></clipPath><clipPath id="2a346f7aee"><path d="M 17.5625 133 L 127.0625 133 L 127.0625 242.484375 L 17.5625 242.484375 Z M 17.5625 133 " clip-rule="nonzero"/></clipPath><clipPath id="fe2be73124"><path d="M 127.34375 144.25 L 127.34375 231.492188 C 127.34375 234.472656 126.15625 237.335938 124.046875 239.445312 C 121.9375 241.554688 119.078125 242.742188 116.09375 242.742188 L 28.8125 242.742188 C 25.828125 242.742188 22.964844 241.554688 20.855469 239.445312 C 18.746094 237.335938 17.5625 234.472656 17.5625 231.492188 L 17.5625 144.25 C 17.5625 141.265625 18.746094 138.40625 20.855469 136.296875 C 22.964844 134.1875 25.828125 133 28.8125 133 L 116.09375 133 C 119.078125 133 121.9375 134.1875 124.046875 136.296875 C 126.15625 138.40625 127.34375 141.265625 127.34375 144.25 Z M 127.34375 144.25 " clip-rule="nonzero"/></clipPath><clipPath id="a6c4c2c272"><path d="M 132.609375 246.269531 L 242.777344 246.269531 L 242.777344 356.011719 L 132.609375 356.011719 Z M 132.609375 246.269531 " clip-rule="nonzero"/></clipPath><clipPath id="f7276b6870"><path d="M 242.390625 257.519531 L 242.390625 344.761719 C 242.390625 347.746094 241.207031 350.605469 239.097656 352.71875 C 236.984375 354.828125 234.125 356.011719 231.140625 356.011719 L 143.859375 356.011719 C 140.875 356.011719 138.015625 354.828125 135.902344 352.71875 C 133.792969 350.605469 132.609375 347.746094 132.609375 344.761719 L 132.609375 257.519531 C 132.609375 254.539062 133.792969 251.675781 135.902344 249.566406 C 138.015625 247.457031 140.875 246.269531 143.859375 246.269531 L 231.140625 246.269531 C 234.125 246.269531 236.984375 247.457031 239.097656 249.566406 C 241.207031 251.675781 242.390625 254.539062 242.390625 257.519531 Z M 242.390625 257.519531 " clip-rule="nonzero"/></clipPath><clipPath id="d3abc5c375"><path d="M 0.609375 0.269531 L 110.398438 0.269531 L 110.398438 110.011719 L 0.609375 110.011719 Z M 0.609375 0.269531 " clip-rule="nonzero"/></clipPath><clipPath id="14c1782723"><path d="M 110.390625 11.519531 L 110.390625 98.761719 C 110.390625 101.746094 109.207031 104.605469 107.097656 106.71875 C 104.984375 108.828125 102.125 110.011719 99.140625 110.011719 L 11.859375 110.011719 C 8.875 110.011719 6.015625 108.828125 3.902344 106.71875 C 1.792969 104.605469 0.609375 101.746094 0.609375 98.761719 L 0.609375 11.519531 C 0.609375 8.539062 1.792969 5.675781 3.902344 3.566406 C 6.015625 1.457031 8.875 0.269531 11.859375 0.269531 L 99.140625 0.269531 C 102.125 0.269531 104.984375 1.457031 107.097656 3.566406 C 109.207031 5.675781 110.390625 8.539062 110.390625 11.519531 Z M 110.390625 11.519531 " clip-rule="nonzero"/></clipPath><clipPath id="1b10b2e0a5"><rect x="0" width="111" y="0" height="111"/></clipPath><clipPath id="2cd51430ed"><path d="M 132.609375 246.285156 L 242.109375 246.285156 L 242.109375 355.769531 L 132.609375 355.769531 Z M 132.609375 246.285156 " clip-rule="nonzero"/></clipPath><clipPath id="b071b344a2"><path d="M 242.390625 257.535156 L 242.390625 344.777344 C 242.390625 347.757812 241.203125 350.621094 239.09375 352.730469 C 236.984375 354.839844 234.125 356.027344 231.140625 356.027344 L 143.859375 356.027344 C 140.875 356.027344 138.015625 354.839844 135.902344 352.730469 C 133.792969 350.621094 132.609375 347.757812 132.609375 344.777344 L 132.609375 257.535156 C 132.609375 254.550781 133.792969 251.691406 135.902344 249.582031 C 138.015625 247.472656 140.875 246.285156 143.859375 246.285156 L 231.140625 246.285156 C 234.125 246.285156 236.984375 247.472656 239.09375 249.582031 C 241.203125 251.691406 242.390625 254.550781 242.390625 257.535156 Z M 242.390625 257.535156 " clip-rule="nonzero"/></clipPath><clipPath id="8215eb9675"><path d="M 247.65625 246.269531 L 357.828125 246.269531 L 357.828125 356.011719 L 247.65625 356.011719 Z M 247.65625 246.269531 " clip-rule="nonzero"/></clipPath><clipPath id="ebf40f2fcf"><path d="M 357.4375 257.519531 L 357.4375 344.761719 C 357.4375 347.746094 356.253906 350.605469 354.144531 352.71875 C 352.035156 354.828125 349.171875 356.011719 346.1875 356.011719 L 258.90625 356.011719 C 255.921875 356.011719 253.0625 354.828125 250.953125 352.71875 C 248.84375 350.605469 247.65625 347.746094 247.65625 344.761719 L 247.65625 257.519531 C 247.65625 254.539062 248.84375 251.675781 250.953125 249.566406 C 253.0625 247.457031 255.921875 246.269531 258.90625 246.269531 L 346.1875 246.269531 C 349.171875 246.269531 352.035156 247.457031 354.144531 249.566406 C 356.253906 251.675781 357.4375 254.539062 357.4375 257.519531 Z M 357.4375 257.519531 " clip-rule="nonzero"/></clipPath><clipPath id="d954c39a12"><path d="M 0.65625 0.269531 L 110.601562 0.269531 L 110.601562 110.011719 L 0.65625 110.011719 Z M 0.65625 0.269531 " clip-rule="nonzero"/></clipPath><clipPath id="365de79f84"><path d="M 110.4375 11.519531 L 110.4375 98.761719 C 110.4375 101.746094 109.253906 104.605469 107.144531 106.71875 C 105.035156 108.828125 102.171875 110.011719 99.1875 110.011719 L 11.90625 110.011719 C 8.921875 110.011719 6.0625 108.828125 3.953125 106.71875 C 1.84375 104.605469 0.65625 101.746094 0.65625 98.761719 L 0.65625 11.519531 C 0.65625 8.539062 1.84375 5.675781 3.953125 3.566406 C 6.0625 1.457031 8.921875 0.269531 11.90625 0.269531 L 99.1875 0.269531 C 102.171875 0.269531 105.035156 1.457031 107.144531 3.566406 C 109.253906 5.675781 110.4375 8.539062 110.4375 11.519531 Z M 110.4375 11.519531 " clip-rule="nonzero"/></clipPath><clipPath id="acfa26c0e5"><rect x="0" width="111" y="0" height="111"/></clipPath><clipPath id="2d06da5924"><path d="M 247.65625 246.285156 L 357.15625 246.285156 L 357.15625 355.769531 L 247.65625 355.769531 Z M 247.65625 246.285156 " clip-rule="nonzero"/></clipPath><clipPath id="e1655d65a3"><path d="M 357.4375 257.535156 L 357.4375 344.777344 C 357.4375 347.757812 356.253906 350.621094 354.144531 352.730469 C 352.03125 354.839844 349.171875 356.027344 346.1875 356.027344 L 258.90625 356.027344 C 255.921875 356.027344 253.0625 354.839844 250.953125 352.730469 C 248.84375 350.621094 247.65625 347.757812 247.65625 344.777344 L 247.65625 257.535156 C 247.65625 254.550781 248.84375 251.691406 250.953125 249.582031 C 253.0625 247.472656 255.921875 246.285156 258.90625 246.285156 L 346.1875 246.285156 C 349.171875 246.285156 352.03125 247.472656 354.144531 249.582031 C 356.253906 251.691406 357.4375 254.550781 357.4375 257.535156 Z M 357.4375 257.535156 " clip-rule="nonzero"/></clipPath><clipPath id="1e2fe134ff"><path d="M 17.5625 246.269531 L 127.730469 246.269531 L 127.730469 356.011719 L 17.5625 356.011719 Z M 17.5625 246.269531 " clip-rule="nonzero"/></clipPath><clipPath id="c6524c0b2c"><path d="M 127.34375 257.519531 L 127.34375 344.761719 C 127.34375 347.746094 126.15625 350.605469 124.046875 352.71875 C 121.9375 354.828125 119.078125 356.011719 116.09375 356.011719 L 28.8125 356.011719 C 25.828125 356.011719 22.964844 354.828125 20.855469 352.71875 C 18.746094 350.605469 17.5625 347.746094 17.5625 344.761719 L 17.5625 257.519531 C 17.5625 254.539062 18.746094 251.675781 20.855469 249.566406 C 22.964844 247.457031 25.828125 246.269531 28.8125 246.269531 L 116.09375 246.269531 C 119.078125 246.269531 121.9375 247.457031 124.046875 249.566406 C 126.15625 251.675781 127.34375 254.539062 127.34375 257.519531 Z M 127.34375 257.519531 " clip-rule="nonzero"/></clipPath><clipPath id="cfacb5d4bd"><path d="M 0.5625 0.269531 L 110.441406 0.269531 L 110.441406 110.011719 L 0.5625 110.011719 Z M 0.5625 0.269531 " clip-rule="nonzero"/></clipPath><clipPath id="6dafeb2252"><path d="M 110.34375 11.519531 L 110.34375 98.761719 C 110.34375 101.746094 109.15625 104.605469 107.046875 106.71875 C 104.9375 108.828125 102.078125 110.011719 99.09375 110.011719 L 11.8125 110.011719 C 8.828125 110.011719 5.964844 108.828125 3.855469 106.71875 C 1.746094 104.605469 0.5625 101.746094 0.5625 98.761719 L 0.5625 11.519531 C 0.5625 8.539062 1.746094 5.675781 3.855469 3.566406 C 5.964844 1.457031 8.828125 0.269531 11.8125 0.269531 L 99.09375 0.269531 C 102.078125 0.269531 104.9375 1.457031 107.046875 3.566406 C 109.15625 5.675781 110.34375 8.539062 110.34375 11.519531 Z M 110.34375 11.519531 " clip-rule="nonzero"/></clipPath><clipPath id="9f99bb5dcb"><rect x="0" width="111" y="0" height="111"/></clipPath><clipPath id="f8a2a067b4"><path d="M 17.5625 246.285156 L 127.0625 246.285156 L 127.0625 355.769531 L 17.5625 355.769531 Z M 17.5625 246.285156 " clip-rule="nonzero"/></clipPath><clipPath id="1d78af0f29"><path d="M 127.34375 257.535156 L 127.34375 344.777344 C 127.34375 347.757812 126.15625 350.621094 124.046875 352.730469 C 121.9375 354.839844 119.078125 356.027344 116.09375 356.027344 L 28.8125 356.027344 C 25.828125 356.027344 22.964844 354.839844 20.855469 352.730469 C 18.746094 350.621094 17.5625 347.757812 17.5625 344.777344 L 17.5625 257.535156 C 17.5625 254.550781 18.746094 251.691406 20.855469 249.582031 C 22.964844 247.472656 25.828125 246.285156 28.8125 246.285156 L 116.09375 246.285156 C 119.078125 246.285156 121.9375 247.472656 124.046875 249.582031 C 126.15625 251.691406 127.34375 254.550781 127.34375 257.535156 Z M 127.34375 257.535156 " clip-rule="nonzero"/></clipPath><clipPath id="df344a556e"><path d="M 156.386719 148.527344 L 218.613281 148.527344 L 218.613281 227.25 L 156.386719 227.25 Z M 156.386719 148.527344 " clip-rule="nonzero"/></clipPath><clipPath id="9b7771d45e"><path d="M 187.5 148.625 C 170.367188 148.625 156.480469 166.195312 156.480469 187.875 C 156.480469 209.550781 170.367188 227.121094 187.5 227.121094 C 204.632812 227.121094 218.519531 209.550781 218.519531 187.875 C 218.519531 166.195312 204.632812 148.625 187.5 148.625 Z M 187.5 148.625 " clip-rule="nonzero"/></clipPath><clipPath id="6ee6d787b2"><path d="M 0.480469 0.558594 L 62.613281 0.558594 L 62.613281 79.25 L 0.480469 79.25 Z M 0.480469 0.558594 " clip-rule="nonzero"/></clipPath><clipPath id="3489369a97"><path d="M 31.5 0.625 C 14.367188 0.625 0.480469 18.195312 0.480469 39.875 C 0.480469 61.550781 14.367188 79.121094 31.5 79.121094 C 48.632812 79.121094 62.519531 61.550781 62.519531 39.875 C 62.519531 18.195312 48.632812 0.625 31.5 0.625 Z M 31.5 0.625 " clip-rule="nonzero"/></clipPath><clipPath id="d1da9460d3"><rect x="0" width="63" y="0" height="80"/></clipPath><clipPath id="acc7728305"><path d="M 155.449219 147.589844 L 219.550781 147.589844 L 219.550781 228.191406 L 155.449219 228.191406 Z M 155.449219 147.589844 " clip-rule="nonzero"/></clipPath><clipPath id="a4d9a5d4ab"><path d="M 187.5 228.15625 C 169.828125 228.15625 155.449219 210.082031 155.449219 187.875 C 155.449219 165.664062 169.828125 147.589844 187.5 147.589844 C 205.171875 147.589844 219.550781 165.664062 219.550781 187.875 C 219.550781 210.082031 205.171875 228.15625 187.5 228.15625 Z M 187.5 149.671875 C 170.96875 149.671875 157.527344 166.804688 157.527344 187.875 C 157.527344 208.941406 170.96875 226.074219 187.5 226.074219 C 204.03125 226.074219 217.472656 208.941406 217.472656 187.875 C 217.472656 166.804688 204.03125 149.671875 187.5 149.671875 Z M 187.5 149.671875 " clip-rule="nonzero"/></clipPath><clipPath id="9c944763d8"><path d="M 0.449219 0.589844 L 64.550781 0.589844 L 64.550781 81.191406 L 0.449219 81.191406 Z M 0.449219 0.589844 " clip-rule="nonzero"/></clipPath><clipPath id="9f7cbfce45"><path d="M 32.5 81.15625 C 14.828125 81.15625 0.449219 63.082031 0.449219 40.875 C 0.449219 18.664062 14.828125 0.589844 32.5 0.589844 C 50.171875 0.589844 64.550781 18.664062 64.550781 40.875 C 64.550781 63.082031 50.171875 81.15625 32.5 81.15625 Z M 32.5 2.671875 C 15.96875 2.671875 2.527344 19.804688 2.527344 40.875 C 2.527344 61.941406 15.96875 79.074219 32.5 79.074219 C 49.03125 79.074219 62.472656 61.941406 62.472656 40.875 C 62.472656 19.804688 49.03125 2.671875 32.5 2.671875 Z M 32.5 2.671875 " clip-rule="nonzero"/></clipPath><clipPath id="8bd3e1e471"><rect x="0" width="65" y="0" height="82"/></clipPath></defs><rect x="-37.5" width="450" fill="#ffffff" y="-37.499999" height="449.999989" fill-opacity="1"/><rect x="-37.5" width="450" fill="#ffffff" y="-37.499999" height="449.999989" fill-opacity="1"/><g clip-path="url(#5c55fb07e1)"><g clip-path="url(#79707576cc)"><g transform="matrix(1, 0, 0, 1, 17, 18)"><g clip-path="url(#3e53f357d9)"><g clip-path="url(#d02f88721d)"><g clip-path="url(#2269c8a026)"><path fill="#1aabec" d="M 0.703125 0.953125 L 110.445312 0.953125 L 110.445312 110.695312 L 0.703125 110.695312 Z M 0.703125 0.953125 " fill-opacity="1" fill-rule="nonzero"/></g></g></g></g></g></g><g clip-path="url(#4582a620c9)"><g clip-path="url(#95c2b2fb5b)"><path stroke-linecap="butt" transform="matrix(0.75, 0, 0, 0.75, 17.704436, 18.968958)" fill="none" stroke-linejoin="miter" d="M 146.373261 14.999723 L 146.373261 131.322648 C 146.373261 135.296606 144.795136 139.114315 141.982636 141.926815 C 139.170136 144.739315 135.352427 146.322649 131.37326 146.322649 L 14.998252 146.322649 C 11.019086 146.322649 7.206585 144.739315 4.394085 141.926815 C 1.581585 139.114315 -0.0017485 135.296606 -0.0017485 131.322648 L -0.0017485 14.999723 C -0.0017485 11.020556 1.581585 7.208056 4.394085 4.395556 C 7.206585 1.577848 11.019086 -0.000277593 14.998252 -0.000277593 L 131.37326 -0.000277593 C 135.352427 -0.000277593 139.170136 1.577848 141.982636 4.395556 C 144.795136 7.208056 146.373261 11.020556 146.373261 14.999723 Z M 146.373261 14.999723 " stroke="#000000" stroke-width="4" stroke-opacity="1" stroke-miterlimit="4"/></g></g><g clip-path="url(#4986d78cb5)"><g clip-path="url(#09f4859669)"><g transform="matrix(1, 0, 0, 1, 132, 18)"><g clip-path="url(#d86b7bc4dc)"><g clip-path="url(#061007d98f)"><g clip-path="url(#c54c6782d4)"><path fill="#1aabec" d="M 0.609375 0.953125 L 110.351562 0.953125 L 110.351562 110.695312 L 0.609375 110.695312 Z M 0.609375 0.953125 " fill-opacity="1" fill-rule="nonzero"/></g></g></g></g></g></g><g clip-path="url(#943f60939e)"><g clip-path="url(#22aeba727a)"><path stroke-linecap="butt" transform="matrix(0.75, 0, 0, 0.75, 132.609034, 18.968958)" fill="none" stroke-linejoin="miter" d="M 146.375464 14.999723 L 146.375464 131.322648 C 146.375464 135.296606 144.792131 139.114315 141.97963 141.926815 C 139.16713 144.739315 135.35463 146.322649 131.375463 146.322649 L 15.000455 146.322649 C 11.021288 146.322649 7.208788 144.739315 4.39108 141.926815 C 1.57858 139.114315 0.000454411 135.296606 0.000454411 131.322648 L 0.000454411 14.999723 C 0.000454411 11.020556 1.57858 7.208056 4.39108 4.395556 C 7.208788 1.577848 11.021288 -0.000277593 15.000455 -0.000277593 L 131.375463 -0.000277593 C 135.35463 -0.000277593 139.16713 1.577848 141.97963 4.395556 C 144.792131 7.208056 146.375464 11.020556 146.375464 14.999723 Z M 146.375464 14.999723 " stroke="#000000" stroke-width="4" stroke-opacity="1" stroke-miterlimit="4"/></g></g><g clip-path="url(#8c76fbda18)"><g clip-path="url(#be843eade1)"><g transform="matrix(1, 0, 0, 1, 247, 18)"><g clip-path="url(#fe47e8fb5b)"><g clip-path="url(#b19575388e)"><g clip-path="url(#9dc822e335)"><path fill="#1aabec" d="M 0.65625 0.953125 L 110.398438 0.953125 L 110.398438 110.695312 L 0.65625 110.695312 Z M 0.65625 0.953125 " fill-opacity="1" fill-rule="nonzero"/></g></g></g></g></g></g><g clip-path="url(#64d0427933)"><g clip-path="url(#6caea1db6e)"><path stroke-linecap="butt" transform="matrix(0.75, 0, 0, 0.75, 247.656756, 18.968958)" fill="none" stroke-linejoin="miter" d="M 146.374335 14.999723 L 146.374335 131.322648 C 146.374335 135.296606 144.79621 139.114315 141.983709 141.926815 C 139.171209 144.739315 135.353501 146.322649 131.374334 146.322649 L 14.999326 146.322649 C 11.020159 146.322649 7.207659 144.739315 4.395159 141.926815 C 1.582658 139.114315 -0.000674983 135.296606 -0.000674983 131.322648 L -0.000674983 14.999723 C -0.000674983 11.020556 1.582658 7.208056 4.395159 4.395556 C 7.207659 1.577848 11.020159 -0.000277593 14.999326 -0.000277593 L 131.374334 -0.000277593 C 135.353501 -0.000277593 139.171209 1.577848 141.983709 4.395556 C 144.79621 7.208056 146.374335 11.020556 146.374335 14.999723 Z M 146.374335 14.999723 " stroke="#000000" stroke-width="4" stroke-opacity="1" stroke-miterlimit="4"/></g></g><g clip-path="url(#d533e47106)"><g clip-path="url(#372d1737a5)"><g transform="matrix(1, 0, 0, 1, 132, 132)"><g clip-path="url(#4f58e00824)"><g clip-path="url(#48ecffb955)"><g clip-path="url(#dc4951af37)"><path fill="#1aabec" d="M 0.609375 0.984375 L 110.351562 0.984375 L 110.351562 110.726562 L 0.609375 110.726562 Z M 0.609375 0.984375 " fill-opacity="1" fill-rule="nonzero"/></g></g></g></g></g></g><g clip-path="url(#43a8f4d931)"><g clip-path="url(#9a9cc3caf0)"><path stroke-linecap="butt" transform="matrix(0.75, 0, 0, 0.75, 132.609034, 133.000714)" fill="none" stroke-linejoin="miter" d="M 146.375464 14.999048 L 146.375464 131.321973 C 146.375464 135.295931 144.792131 139.11364 141.97963 141.92614 C 139.16713 144.73864 135.35463 146.321974 131.375463 146.321974 L 15.000455 146.321974 C 11.021288 146.321974 7.208788 144.73864 4.39108 141.92614 C 1.57858 139.11364 0.000454411 135.295931 0.000454411 131.321973 L 0.000454411 14.999048 C 0.000454411 11.019881 1.57858 7.207381 4.39108 4.394881 C 7.208788 1.582381 11.021288 -0.000952622 15.000455 -0.000952622 L 131.375463 -0.000952622 C 135.35463 -0.000952622 139.16713 1.582381 141.97963 4.394881 C 144.792131 7.207381 146.375464 11.019881 146.375464 14.999048 Z M 146.375464 14.999048 " stroke="#000000" stroke-width="4" stroke-opacity="1" stroke-miterlimit="4"/></g></g><g clip-path="url(#73a6d9bb27)"><g clip-path="url(#8dca7a06eb)"><g transform="matrix(1, 0, 0, 1, 247, 132)"><g clip-path="url(#d7797b40f8)"><g clip-path="url(#631dca63cb)"><g clip-path="url(#7faaa76a35)"><path fill="#af4c0f" d="M 0.65625 0.984375 L 110.398438 0.984375 L 110.398438 110.726562 L 0.65625 110.726562 Z M 0.65625 0.984375 " fill-opacity="1" fill-rule="nonzero"/></g></g></g></g></g></g><g clip-path="url(#5c16db5263)"><g clip-path="url(#0bcbb793a5)"><path stroke-linecap="butt" transform="matrix(0.75, 0, 0, 0.75, 247.656756, 133.000714)" fill="none" stroke-linejoin="miter" d="M 146.374335 14.999048 L 146.374335 131.321973 C 146.374335 135.295931 144.79621 139.11364 141.983709 141.92614 C 139.171209 144.73864 135.353501 146.321974 131.374334 146.321974 L 14.999326 146.321974 C 11.020159 146.321974 7.207659 144.73864 4.395159 141.92614 C 1.582658 139.11364 -0.000674983 135.295931 -0.000674983 131.321973 L -0.000674983 14.999048 C -0.000674983 11.019881 1.582658 7.207381 4.395159 4.394881 C 7.207659 1.582381 11.020159 -0.000952622 14.999326 -0.000952622 L 131.374334 -0.000952622 C 135.353501 -0.000952622 139.171209 1.582381 141.983709 4.394881 C 144.79621 7.207381 146.374335 11.019881 146.374335 14.999048 Z M 146.374335 14.999048 " stroke="#000000" stroke-width="4" stroke-opacity="1" stroke-miterlimit="4"/></g></g><g clip-path="url(#e1f76d693e)"><g clip-path="url(#40b3c4eca2)"><g transform="matrix(1, 0, 0, 1, 17, 132)"><g clip-path="url(#fe3d318010)"><g clip-path="url(#645515a0e3)"><g clip-path="url(#784a487bf3)"><path fill="#1aabec" d="M 0.5625 0.984375 L 110.300781 0.984375 L 110.300781 110.726562 L 0.5625 110.726562 Z M 0.5625 0.984375 " fill-opacity="1" fill-rule="nonzero"/></g></g></g></g></g></g><g clip-path="url(#2a346f7aee)"><g clip-path="url(#fe2be73124)"><path stroke-linecap="butt" transform="matrix(0.75, 0, 0, 0.75, 17.561321, 133.000714)" fill="none" stroke-linejoin="miter" d="M 146.376582 14.999048 L 146.376582 131.321973 C 146.376582 135.295931 144.793248 139.11364 141.980748 141.92614 C 139.168248 144.73864 135.355748 146.321974 131.376581 146.321974 L 15.001573 146.321974 C 11.022406 146.321974 7.204697 144.73864 4.392197 141.92614 C 1.579697 139.11364 0.00157196 135.295931 0.00157196 131.321973 L 0.00157196 14.999048 C 0.00157196 11.019881 1.579697 7.207381 4.392197 4.394881 C 7.204697 1.582381 11.022406 -0.000952622 15.001573 -0.000952622 L 131.376581 -0.000952622 C 135.355748 -0.000952622 139.168248 1.582381 141.980748 4.394881 C 144.793248 7.207381 146.376582 11.019881 146.376582 14.999048 Z M 146.376582 14.999048 " stroke="#000000" stroke-width="4" stroke-opacity="1" stroke-miterlimit="4"/></g></g><g clip-path="url(#a6c4c2c272)"><g clip-path="url(#f7276b6870)"><g transform="matrix(1, 0, 0, 1, 132, 246)"><g clip-path="url(#1b10b2e0a5)"><g clip-path="url(#d3abc5c375)"><g clip-path="url(#14c1782723)"><path fill="#af4c0f" d="M 0.609375 0.269531 L 110.351562 0.269531 L 110.351562 110.011719 L 0.609375 110.011719 Z M 0.609375 0.269531 " fill-opacity="1" fill-rule="nonzero"/></g></g></g></g></g></g><g clip-path="url(#2cd51430ed)"><g clip-path="url(#b071b344a2)"><path stroke-linecap="butt" transform="matrix(0.75, 0, 0, 0.75, 132.609034, 246.285833)" fill="none" stroke-linejoin="miter" d="M 146.375464 14.999098 L 146.375464 131.322022 C 146.375464 135.295981 144.792131 139.11369 141.97963 141.92619 C 139.16713 144.73869 135.35463 146.322023 131.375463 146.322023 L 15.000455 146.322023 C 11.021288 146.322023 7.208788 144.73869 4.39108 141.92619 C 1.57858 139.11369 0.000454411 135.295981 0.000454411 131.322022 L 0.000454411 14.999098 C 0.000454411 11.019931 1.57858 7.207431 4.39108 4.394931 C 7.208788 1.582431 11.021288 -0.000902903 15.000455 -0.000902903 L 131.375463 -0.000902903 C 135.35463 -0.000902903 139.16713 1.582431 141.97963 4.394931 C 144.792131 7.207431 146.375464 11.019931 146.375464 14.999098 Z M 146.375464 14.999098 " stroke="#000000" stroke-width="4" stroke-opacity="1" stroke-miterlimit="4"/></g></g><g clip-path="url(#8215eb9675)"><g clip-path="url(#ebf40f2fcf)"><g transform="matrix(1, 0, 0, 1, 247, 246)"><g clip-path="url(#acfa26c0e5)"><g clip-path="url(#d954c39a12)"><g clip-path="url(#365de79f84)"><path fill="#af4c0f" d="M 0.65625 0.269531 L 110.398438 0.269531 L 110.398438 110.011719 L 0.65625 110.011719 Z M 0.65625 0.269531 " fill-opacity="1" fill-rule="nonzero"/></g></g></g></g></g></g><g clip-path="url(#2d06da5924)"><g clip-path="url(#e1655d65a3)"><path stroke-linecap="butt" transform="matrix(0.75, 0, 0, 0.75, 247.656756, 246.285833)" fill="none" stroke-linejoin="miter" d="M 146.374335 14.999098 L 146.374335 131.322022 C 146.374335 135.295981 144.79621 139.11369 141.983709 141.92619 C 139.171209 144.73869 135.353501 146.322023 131.374334 146.322023 L 14.999326 146.322023 C 11.020159 146.322023 7.207659 144.73869 4.395159 141.92619 C 1.582658 139.11369 -0.000674983 135.295981 -0.000674983 131.322022 L -0.000674983 14.999098 C -0.000674983 11.019931 1.582658 7.207431 4.395159 4.394931 C 7.207659 1.582431 11.020159 -0.000902903 14.999326 -0.000902903 L 131.374334 -0.000902903 C 135.353501 -0.000902903 139.171209 1.582431 141.983709 4.394931 C 144.79621 7.207431 146.374335 11.019931 146.374335 14.999098 Z M 146.374335 14.999098 " stroke="#000000" stroke-width="4" stroke-opacity="1" stroke-miterlimit="4"/></g></g><g clip-path="url(#1e2fe134ff)"><g clip-path="url(#c6524c0b2c)"><g transform="matrix(1, 0, 0, 1, 17, 246)"><g clip-path="url(#9f99bb5dcb)"><g clip-path="url(#cfacb5d4bd)"><g clip-path="url(#6dafeb2252)"><path fill="#af4c0f" d="M 0.5625 0.269531 L 110.300781 0.269531 L 110.300781 110.011719 L 0.5625 110.011719 Z M 0.5625 0.269531 " fill-opacity="1" fill-rule="nonzero"/></g></g></g></g></g></g><g clip-path="url(#f8a2a067b4)"><g clip-path="url(#1d78af0f29)"><path stroke-linecap="butt" transform="matrix(0.75, 0, 0, 0.75, 17.561321, 246.285833)" fill="none" stroke-linejoin="miter" d="M 146.376582 14.999098 L 146.376582 131.322022 C 146.376582 135.295981 144.793248 139.11369 141.980748 141.92619 C 139.168248 144.73869 135.355748 146.322023 131.376581 146.322023 L 15.001573 146.322023 C 11.022406 146.322023 7.204697 144.73869 4.392197 141.92619 C 1.579697 139.11369 0.00157196 135.295981 0.00157196 131.322022 L 0.00157196 14.999098 C 0.00157196 11.019931 1.579697 7.207431 4.392197 4.394931 C 7.204697 1.582431 11.022406 -0.000902903 15.001573 -0.000902903 L 131.376581 -0.000902903 C 135.355748 -0.000902903 139.168248 1.582431 141.980748 4.394931 C 144.793248 7.207431 146.376582 11.019931 146.376582 14.999098 Z M 146.376582 14.999098 " stroke="#000000" stroke-width="4" stroke-opacity="1" stroke-miterlimit="4"/></g></g><g clip-path="url(#df344a556e)"><g clip-path="url(#9b7771d45e)"><g transform="matrix(1, 0, 0, 1, 156, 148)"><g clip-path="url(#d1da9460d3)"><g clip-path="url(#6ee6d787b2)"><g clip-path="url(#3489369a97)"><rect x="-238.5" width="540" fill="#af4c0f" height="539.999987" y="-230.499998" fill-opacity="1"/></g></g></g></g></g></g><g clip-path="url(#acc7728305)"><g clip-path="url(#a4d9a5d4ab)"><g transform="matrix(1, 0, 0, 1, 155, 147)"><g clip-path="url(#8bd3e1e471)"><g clip-path="url(#9c944763d8)"><g clip-path="url(#9f7cbfce45)"><path fill="#000000" d="M 0.449219 0.589844 L 64.550781 0.589844 L 64.550781 81.191406 L 0.449219 81.191406 Z M 0.449219 0.589844 " fill-opacity="1" fill-rule="nonzero"/></g></g></g></g></g></g></svg>